<?xml version="1.0" standalone="no"?>
<!DOCTYPE svg PUBLIC "-//W3C//DTD SVG 20010904//EN"
 "http://www.w3.org/TR/2001/REC-SVG-20010904/DTD/svg10.dtd">
<svg version="1.0" xmlns="http://www.w3.org/2000/svg"
 width="1920.000000pt" height="650.000000pt" viewBox="0 0 1920.000000 650.000000"
 preserveAspectRatio="xMidYMid meet">

<g transform="translate(0.000000,650.000000) scale(0.100000,-0.100000)"
fill="#000000" stroke="none">
<path d="M3301 5119 c-550 -58 -1057 -362 -1363 -818 -212 -317 -318 -667
-318 -1049 1 -279 54 -525 167 -774 l36 -78 196 0 195 0 23 -28 c14 -16 10 -4
-10 28 -115 185 -196 410 -227 630 -16 110 -13 352 4 461 109 668 594 1173
1271 1321 l100 22 6155 4 c4615 2 6182 0 6264 -8 444 -48 844 -277 1115 -639
135 -181 244 -434 287 -666 28 -150 26 -442 -5 -585 -32 -153 -84 -299 -150
-427 l-59 -113 198 0 197 0 36 77 c55 121 105 275 134 412 25 117 27 144 27
366 0 222 -2 249 -26 365 -176 824 -834 1415 -1667 1500 -129 13 -12454 12
-12580 -1z"/>
<path d="M3440 4673 c-247 -27 -497 -120 -693 -260 -105 -74 -256 -225 -330
-330 -117 -165 -205 -373 -243 -578 -22 -114 -24 -338 -5 -464 9 -58 17 -87
21 -76 6 17 8 17 16 3 44 -77 268 -288 306 -288 18 0 188 -83 188 -92 0 -4 8
-8 18 -8 19 0 238 -66 264 -81 10 -5 25 -9 33 -9 8 0 15 -4 15 -9 0 -8 30 -15
120 -27 14 -2 77 -8 140 -14 63 -6 133 -12 155 -15 22 -3 76 -8 120 -11 62 -4
77 -3 65 6 -12 9 -8 10 19 6 39 -7 11638 -9 11649 -2 11 6 253 9 347 4 44 -3
67 -2 50 2 l-30 8 33 1 c17 0 32 -3 32 -7 0 -11 298 15 445 38 33 6 65 10 70
10 6 0 3 5 -5 10 -12 8 -9 10 12 10 15 0 29 4 32 9 3 5 30 15 58 21 29 7 58
16 63 20 6 5 12 8 15 8 3 -1 32 11 65 27 33 15 78 34 100 43 22 8 47 20 55 27
8 7 24 15 35 19 71 25 197 129 306 254 42 47 48 59 58 127 16 109 14 326 -5
436 -32 191 -116 399 -231 571 -64 96 -217 255 -322 333 -154 116 -359 209
-569 257 l-97 23 -6170 1 c-3393 0 -6186 -1 -6205 -3z m167 -2249 c-3 -3 -12
-4 -19 -1 -8 3 -5 6 6 6 11 1 17 -2 13 -5z"/>
<path d="M17011 2944 c0 -11 3 -14 6 -6 3 7 2 16 -1 19 -3 4 -6 -2 -5 -13z"/>
</g>
</svg>
